/* XPM */
static char * objectdlg_xpm[] = {
"16 16 106 2",
"  	c None",
". 	c #9E9E9E",
"+ 	c #9C9C9C",
"@ 	c #9B9B9B",
"# 	c #999999",
"$ 	c #9D9D9D",
"% 	c #E4E4E4",
"& 	c #EEEEEE",
"* 	c #969696",
"= 	c #E2E2E2",
"- 	c #E7E7E7",
"; 	c #B9B9B9",
"> 	c #939393",
", 	c #989898",
"' 	c #CFCFCF",
") 	c #929292",
"! 	c #8E8E8E",
"~ 	c #8C8C8C",
"{ 	c #8A8A8A",
"] 	c #DDDDDD",
"^ 	c #C5C5C5",
"/ 	c #8F8F8F",
"( 	c #8D8D8D",
"_ 	c #ACACAC",
": 	c #D7D7D7",
"< 	c #878787",
"[ 	c #D4D4D4",
"} 	c #C8C8C8",
"| 	c #BCBCBC",
"1 	c #BABABA",
"2 	c #C2C2C2",
"3 	c #C4C4C4",
"4 	c #858585",
"5 	c #FFAB69",
"6 	c #F5A567",
"7 	c #C7C7C7",
"8 	c #CCCCCC",
"9 	c #C6C6C6",
"0 	c #C3C3C3",
"a 	c #C0C0C0",
"b 	c #848484",
"c 	c #828282",
"d 	c #FFA965",
"e 	c #FFB781",
"f 	c #FFB47C",
"g 	c #F2A76F",
"h 	c #D2D2D2",
"i 	c #B5B5B5",
"j 	c #898989",
"k 	c #838383",
"l 	c #818181",
"m 	c #FFA765",
"n 	c #FFB77E",
"o 	c #FFCEA9",
"p 	c #FFCDA8",
"q 	c #FFAC70",
"r 	c #EE9A5F",
"s 	c #888888",
"t 	c #FFA561",
"u 	c #FFB67C",
"v 	c #FFCEA8",
"w 	c #FFBF90",
"x 	c #FFBD8B",
"y 	c #FFC8A0",
"z 	c #FFA461",
"A 	c #FA8737",
"B 	c #FFA55F",
"C 	c #FFB47B",
"D 	c #FFCCA6",
"E 	c #FFBE8E",
"F 	c #FFB37C",
"G 	c #FFB885",
"H 	c #FFC59B",
"I 	c #FF9E59",
"J 	c #FF8129",
"K 	c #FFA35B",
"L 	c #FFB379",
"M 	c #FFCCA5",
"N 	c #FFBD8D",
"O 	c #FFB279",
"P 	c #FFB683",
"Q 	c #FFC399",
"R 	c #FF9C58",
"S 	c #FF7F25",
"T 	c #FF9D53",
"U 	c #FFCBA4",
"V 	c #FFBC8B",
"W 	c #FFB077",
"X 	c #FFB580",
"Y 	c #FFC398",
"Z 	c #FF9C56",
"` 	c #FF7D23",
" .	c #FF9549",
"..	c #FFC7A0",
"+.	c #FFB783",
"@.	c #FFB47F",
"#.	c #FFC297",
"$.	c #FF9953",
"%.	c #FF7B21",
"&.	c #FF913F",
"*.	c #FFC094",
"=.	c #FF9851",
"-.	c #FF791F",
";.	c #FF852F",
">.	c #FF7D21",
",.	c #FF791B",
"                  . + @ #       ",
"                $ @ % & *       ",
"                @ = - ; >       ",
"                , % ' )   ! ~ { ",
"                * ] ^ / ( _ : < ",
"                > [ } | 1 2 3 4 ",
"          5 6 ) 7 8 7 9 0 a b c ",
"        d e f g h i j < 4 k l   ",
"      m n o p q r s             ",
"    t u v w x y z A             ",
"  B C D E F G H I J             ",
"K L M N O P Q R S               ",
"T U V W X Y Z `                 ",
" ...+.@.#.$.%.                  ",
"&.z #.*.=.-.                    ",
"  ;.J >.,.                      "};
