/* XPM */
static char * resetmove_xpm[] = {
"16 16 124 2",
"  	c None",
". 	c #FD9A00",
"+ 	c #FC9900",
"@ 	c #FB9700",
"# 	c #F69301",
"$ 	c #F59101",
"% 	c #F38F01",
"& 	c #FE9B00",
"* 	c #FDA416",
"= 	c #FEB643",
"- 	c #FEBB4E",
"; 	c #F99601",
"> 	c #FDB84B",
", 	c #F9A833",
"' 	c #EF8B02",
") 	c #ED8902",
"! 	c #FDA51E",
"~ 	c #FEC05B",
"{ 	c #FFC463",
"] 	c #F89B0F",
"^ 	c #F69C1A",
"/ 	c #FFBC54",
"( 	c #FCB446",
"_ 	c #FA9701",
": 	c #FBAA2D",
"< 	c #FFC461",
"[ 	c #FBAE38",
"} 	c #F49001",
"| 	c #F28E01",
"1 	c #F9AB37",
"2 	c #FFBB52",
"3 	c #F49D24",
"4 	c #EB8602",
"5 	c #F79301",
"6 	c #FAAB32",
"7 	c #FEC05A",
"8 	c #F9AC38",
"9 	c #FFBC53",
"0 	c #F6A22C",
"a 	c #FEBD56",
"b 	c #FEB94E",
"c 	c #FFBA4E",
"d 	c #FBB142",
"e 	c #EA8502",
"f 	c #F99F17",
"g 	c #F18D01",
"h 	c #FCB445",
"i 	c #FFB949",
"j 	c #FFB747",
"k 	c #FBAF3F",
"l 	c #E88302",
"m 	c #E68103",
"n 	c #E47E03",
"o 	c #E27C03",
"p 	c #E68611",
"q 	c #DD7704",
"r 	c #F89401",
"s 	c #FDBA50",
"t 	c #FFC76B",
"u 	c #FDBB53",
"v 	c #FBB54A",
"w 	c #FBB349",
"x 	c #FFBD52",
"y 	c #FFB847",
"z 	c #FFB543",
"A 	c #FFB848",
"B 	c #FAAF43",
"C 	c #F8AA3B",
"D 	c #FBB144",
"E 	c #FFB74B",
"F 	c #F6A536",
"G 	c #D87104",
"H 	c #F69201",
"I 	c #F38E01",
"J 	c #F18D02",
"K 	c #FAAE3E",
"L 	c #FFB746",
"M 	c #FFB542",
"N 	c #FAAD3C",
"O 	c #E37E03",
"P 	c #E17B03",
"Q 	c #DF7903",
"R 	c #DC7504",
"S 	c #D77004",
"T 	c #D26B05",
"U 	c #FEB950",
"V 	c #FCB242",
"W 	c #F9AB3C",
"X 	c #F4A12E",
"Y 	c #FAB247",
"Z 	c #E57F03",
"` 	c #F3A232",
" .	c #FFB648",
"..	c #EE9727",
"+.	c #DA7404",
"@.	c #F19D28",
"#.	c #FFBD55",
"$.	c #EF9825",
"%.	c #E27D03",
"&.	c #E07A03",
"*.	c #F29E2F",
"=.	c #FFB442",
"-.	c #E68C21",
";.	c #D06905",
">.	c #F09821",
",.	c #FEBB52",
"'.	c #FCB44A",
").	c #E28518",
"!.	c #FFB340",
"~.	c #F9AA3B",
"{.	c #D57313",
"].	c #E88202",
"^.	c #E68003",
"/.	c #F3A132",
"(.	c #EF9A2A",
"_.	c #DF7A03",
":.	c #D36C05",
"<.	c #F2A137",
"[.	c #E38824",
"}.	c #C65E06",
"|.	c #C35A06",
"1.	c #CE6605",
"2.	c #C96206",
"3.	c #C65D06",
"                                ",
"        . + @     # $ %         ",
"    & * = - ;     $ > , ' )     ",
"      ! ~ { ]     ^ / ( )       ",
"      _ : < [ } | 1 2 3 4       ",
"        5 6 7 | 8 9 0 4         ",
"          % a b c d e           ",
"; f # $ % g h i j k l m n o p q ",
"r s t u v w x y z A B C D E F G ",
"H } I J ' ) K L M N O P Q R S T ",
"          4 U V L W P           ",
"        4 X Y Z `  ...+.        ",
"      e @.#.$.%.&.*.=.-.;.      ",
"    e >.,.'.o     ).!.~.{.      ",
"    ].^./.(._.    :.<.[.}.|.    ",
"        P Q       1.2.3.        "};
