/* XPM */
static char * time_xpm[] = {
"16 16 166 2",
"  	c None",
". 	c #BFA88A",
"+ 	c #C6AB7E",
"@ 	c #CDB378",
"# 	c #D0B87B",
"$ 	c #CDB47A",
"% 	c #C4A971",
"& 	c #B99D71",
"* 	c #B0997A",
"= 	c #C2AA86",
"- 	c #D2BA78",
"; 	c #E3D9C8",
"> 	c #EAE7DD",
", 	c #F1F1EE",
"' 	c #F0F0EC",
") 	c #E4E0D2",
"! 	c #D2C4A8",
"~ 	c #B89C67",
"{ 	c #A98F6C",
"] 	c #C0A885",
"^ 	c #DCCC97",
"/ 	c #EEEBE1",
"( 	c #D9E1EE",
"_ 	c #ACBEDF",
": 	c #96ADD5",
"< 	c #92AAD4",
"[ 	c #A3B7DC",
"} 	c #CEDAE8",
"| 	c #DFD9C6",
"1 	c #B69B68",
"2 	c #9F8564",
"3 	c #B9A388",
"4 	c #CCB374",
"5 	c #ECE9DF",
"6 	c #C2CFE6",
"7 	c #AEBFDF",
"8 	c #DCE3F1",
"9 	c #ECF1F3",
"0 	c #EBF1F4",
"a 	c #D9E2F1",
"b 	c #A3BADC",
"c 	c #AFC1DE",
"d 	c #D8CFB7",
"e 	c #A48358",
"f 	c #BCA177",
"g 	c #DBCFB7",
"h 	c #D7E0ED",
"i 	c #AABDDE",
"j 	c #FFFFFF",
"k 	c #EEF0F0",
"l 	c #DAE5E7",
"m 	c #F7FFFF",
"n 	c #F3FEFF",
"o 	c #98B4DC",
"p 	c #C4D1E1",
"q 	c #BBA473",
"r 	c #987C59",
"s 	c #BEA26D",
"t 	c #E6E1D3",
"u 	c #A4B9DB",
"v 	c #D6E3F1",
"w 	c #F5FBFE",
"x 	c #F3F5F5",
"y 	c #959E9F",
"z 	c #E9F0F0",
"A 	c #F2F8F8",
"B 	c #ADB9BE",
"C 	c #C2DAF0",
"D 	c #8BA7D1",
"E 	c #D3CAA9",
"F 	c #9B7B53",
"G 	c #BDA16C",
"H 	c #EEECE4",
"I 	c #8AA5D1",
"J 	c #E9F6FA",
"K 	c #EEF8FD",
"L 	c #F9FFFF",
"M 	c #798081",
"N 	c #A4AEB1",
"O 	c #777F81",
"P 	c #BAC6C9",
"Q 	c #D3F0FA",
"R 	c #7295C9",
"S 	c #E2DFC9",
"T 	c #9E7B54",
"U 	c #B89A67",
"V 	c #ECEADD",
"W 	c #819FCF",
"X 	c #E2F3FA",
"Y 	c #E9F6FD",
"Z 	c #E3F0F2",
"` 	c #848C8D",
" .	c #C2CFD2",
"..	c #EBFBFF",
"+.	c #CCECFA",
"@.	c #6D90C7",
"#.	c #E1DDC1",
"$.	c #9D7953",
"%.	c #AD8E5E",
"&.	c #DDD3B7",
"*.	c #90AAD1",
"=.	c #C1DBF0",
"-.	c #E6F7FF",
";.	c #E3F2FA",
">.	c #B6C0C5",
",.	c #DEEDF1",
"'.	c #E8FCFF",
").	c #DFF5FF",
"!.	c #AFD4EF",
"~.	c #7B9BC9",
"{.	c #D0C292",
"].	c #957550",
"^.	c #A0855E",
"/.	c #C0A978",
"(.	c #C6D1DA",
"_.	c #88AAD9",
":.	c #EBFEFF",
"<.	c #EEFAFF",
"[.	c #F2FDFF",
"}.	c #F2FEFF",
"|.	c #EFFCFF",
"1.	c #EBFDFF",
"2.	c #7AA3D9",
"3.	c #B9C6CB",
"4.	c #B19458",
"5.	c #907454",
"6.	c #A28257",
"7.	c #D8CCA2",
"8.	c #A5B7CD",
"9.	c #89AAD8",
"0.	c #CFDFEF",
"a.	c #F3F6FA",
"b.	c #F3F5FA",
"c.	c #D1DFEF",
"d.	c #85A7D7",
"e.	c #98ACC3",
"f.	c #CEBD82",
"g.	c #94714D",
"h.	c #9A8161",
"i.	c #A68855",
"j.	c #D6C896",
"k.	c #BFCACC",
"l.	c #869FC8",
"m.	c #7692C5",
"n.	c #7390C4",
"o.	c #809AC4",
"p.	c #B9C4C3",
"q.	c #CDBD7D",
"r.	c #987747",
"s.	c #8F775A",
"t.	c #957C5D",
"u.	c #9A7850",
"v.	c #B1975A",
"w.	c #CEBD85",
"x.	c #DED6A4",
"y.	c #DED5A0",
"z.	c #CBB97B",
"A.	c #AB8C4F",
"B.	c #94724D",
"C.	c #8F7659",
"D.	c #957D61",
"E.	c #917553",
"F.	c #93724E",
"G.	c #97744D",
"H.	c #907452",
"I.	c #917A5E",
"                                ",
"        . + @ # $ % & *         ",
"      = - ; > , ' ) ! ~ {       ",
"    ] ^ / ( _ : < [ } | 1 2     ",
"  3 4 5 6 7 8 9 0 a b c d e     ",
"  f g h i j k l m m n o p q r   ",
"  s t u v w x y z A B C D E F   ",
"  G H I J K L M N O P Q R S T   ",
"  U V W X Y Z ` O  ...+.@.#.$.  ",
"  %.&.*.=.-.;.>.,.'.).!.~.{.].  ",
"  ^./.(._.:.<.[.}.|.1.2.3.4.5.  ",
"    6.7.8.9.0.a.b.c.d.e.f.g.    ",
"    h.i.j.k.l.m.n.o.p.q.r.s.    ",
"      t.u.v.w.x.y.z.A.B.C.      ",
"        D.E.F.G.G.F.H.I.        ",
"                                "};
