/* XPM */
static char *vtx_question_xpm[]={
"16 15 2 1",
". c None",
"a c #008080",
"................",
"................",
"...aaaaaaa......",
"..aaaaaaaaa.....",
"..aaa...aaa.....",
"........aaa.....",
".......aaaa.....",
"......aaa.......",
".....aaa........",
".....aaa........",
".....aaa........",
"................",
".....aaa........",
".....aaa........",
"................"};
