/* XPM */
static char * vtx_movie_xpm[] = {
"16 16 110 2",
"  	c None",
". 	c #0051BD",
"+ 	c #013C8D",
"@ 	c #003278",
"# 	c #0051BC",
"$ 	c #0051BB",
"% 	c #003175",
"& 	c #003379",
"* 	c #095ECE",
"= 	c #2883FF",
"- 	c #095ECF",
"; 	c #004CB0",
"> 	c #004FB8",
", 	c #186FE6",
"' 	c #2681FE",
") 	c #004096",
"! 	c #00327A",
"~ 	c #0050BB",
"{ 	c #2782FF",
"] 	c #0255C5",
"^ 	c #0F4690",
"/ 	c #0045A2",
"( 	c #00429C",
"_ 	c #0B50B0",
": 	c #1F79F3",
"< 	c #0857BD",
"[ 	c #023378",
"} 	c #0052BE",
"| 	c #00357E",
"1 	c #2783FF",
"2 	c #0B5ABE",
"3 	c #5B8CC7",
"4 	c #003B8D",
"5 	c #0047A6",
"6 	c #1054B2",
"7 	c #146CE2",
"8 	c #498DD6",
"9 	c #1C4D94",
"0 	c #003987",
"a 	c #0050BC",
"b 	c #1C74ED",
"c 	c #1A72EB",
"d 	c #003986",
"e 	c #024CAF",
"f 	c #0D62D5",
"g 	c #004098",
"h 	c #0050BA",
"i 	c #0153C0",
"j 	c #1268DD",
"k 	c #0651B4",
"l 	c #003683",
"m 	c #0A489D",
"n 	c #1169DF",
"o 	c #0254C1",
"p 	c #156BE0",
"q 	c #00419A",
"r 	c #2681FF",
"s 	c #166DE4",
"t 	c #125CC2",
"u 	c #1C6DDD",
"v 	c #2784FF",
"w 	c #2682FF",
"x 	c #2079F5",
"y 	c #1268DC",
"z 	c #135BBE",
"A 	c #237BF5",
"B 	c #247FFF",
"C 	c #63ACFD",
"D 	c #77B9FC",
"E 	c #77BAFC",
"F 	c #4A9AFE",
"G 	c #207DFF",
"H 	c #A9DDFA",
"I 	c #BCEAF9",
"J 	c #7ABCFC",
"K 	c #0659C8",
"L 	c #207AF6",
"M 	c #1C73E9",
"N 	c #0C5CC6",
"O 	c #0D5CC8",
"P 	c #1365D5",
"Q 	c #1B77F6",
"R 	c #A2D6FA",
"S 	c #B5E3FA",
"T 	c #73B4F8",
"U 	c #217BF8",
"V 	c #0554BE",
"W 	c #004EB4",
"X 	c #004FBA",
"Y 	c #004AAC",
"Z 	c #004AAD",
"` 	c #004DB3",
" .	c #004DBA",
"..	c #5691E7",
"+.	c #6BA1F1",
"@.	c #6CA1F2",
"#.	c #3477D6",
"$.	c #0051BE",
"%.	c #003682",
"&.	c #003277",
"*.	c #004BAF",
"=.	c #003782",
"-.	c #003884",
";.	c #003F94",
">.	c #0053BF",
",.	c #0050BD",
"'.	c #004FBC",
").	c #0053C0",
"!.	c #00337A",
"~.	c #004FB6",
"                                ",
"    . + @     # $ % &           ",
"  * = - ; @ > , ' . ) !         ",
"~ { ] ^ / ( _ : < [ } |         ",
". 1 2 3 4 5 6 7 8 9 ; 0         ",
"a b c / . d e { f g h @         ",
"  i j k l m n o p q &           ",
"r ' s t u v w x y z A r       } ",
"r r r r r B C D E E F r   } } } ",
"r r { { w G H I I I J { K } } } ",
"L M N O P Q R S S S T U V W W W ",
"~ X Y Z `  ...+.+.@.#.$.%.&.&.&.",
"} *.=.-.;.>.,.'.'.'.. ).-.!.!.!.",
"} } ~.~.$ } } } } } } }     !.!.",
"  } } } } } } } } } } >.        ",
"                                "};
