/* XPM */
static char *vtx_down_xpm[]={
"16 15 3 1",
". c None",
"# c #000000",
"a c #ffffff",
"........#.......",
"........#....#..",
"........#...#...",
"........#..#....",
"........#.#.....",
"........##......",
".###############",
".......##.......",
"......#.#.......",
".....#..#.......",
"....#...#.......",
"...#....#.......",
"...a..#####.....",
".......###......",
"........#......."};
