/* XPM */
static char *vtx_image_xpm[]={
"16 15 6 1",
". c None",
"# c #000000",
"b c #0000ff",
"a c #00ffff",
"d c #ffff00",
"c c #ffffff",
"................",
"................",
".####.......###.",
"................",
".#####.aaa.####.",
".#####abbba####.",
".####abcdbba###.",
".##c#abcdbba###.",
".##c#abbbbba###.",
".##c##abbba####.",
".######aaa#####.",
".##############.",
".##############.",
"................",
"................"};
