/* XPM */
static char *vtx_move_surface_xpm[]={
"16 15 4 1",
"b c #008080",
". c #00ffff",
"# c #ffff00",
"a c #ffffff",
"a...............",
"a..........##...",
"a.........#aa#..",
"a.........#aa#..",
"a..........##...",
"a...............",
"a...............",
"a..bb...........",
"a.bbbb..........",
"abbbbbb..bb.....",
"abbbaaaaaaabbbbb",
"bbbbbbbabbbbbbbb",
"bbbbbbbabbbbbbbb",
"bbbbbbbabbbbbbbb",
"bbbbbbbbbbbbbbbb"};
