/* XPM */
static char * modelmove_xpm[] = {
"16 16 184 2",
"  	c None",
". 	c #6EC461",
"+ 	c #BBE1A5",
"@ 	c #CCEABA",
"# 	c #BEE0C5",
"$ 	c #B4DAC5",
"% 	c #B0D7BD",
"& 	c #ACD7A6",
"* 	c #69BE5D",
"= 	c #66BA5A",
"- 	c #A2D88C",
"; 	c #E8F5CD",
"> 	c #DAEDD4",
", 	c #D3EDCE",
"' 	c #AFDFCF",
") 	c #B5DED6",
"! 	c #A2D4D4",
"~ 	c #A1D0CE",
"{ 	c #AAD0C4",
"] 	c #91C987",
"^ 	c #5DAF53",
"/ 	c #A0D787",
"( 	c #DEF2C0",
"_ 	c #D6F2C7",
": 	c #D5EFD5",
"< 	c #CFE9D0",
"[ 	c #A6DBD5",
"} 	c #ABDEDC",
"| 	c #90CDDB",
"1 	c #8BC8D7",
"2 	c #8EC1C9",
"3 	c #AFD5BD",
"4 	c #91C77A",
"5 	c #53A34A",
"6 	c #E2F3C0",
"7 	c #B4EFB5",
"8 	c #ACF0B5",
"9 	c #B7EDC1",
"0 	c #B7E3D4",
"a 	c #9CD8D9",
"b 	c #95D3DA",
"c 	c #6DB5CD",
"d 	c #6DB3C7",
"e 	c #84CBB5",
"f 	c #9ADF94",
"g 	c #CDE7AF",
"h 	c #4D9B46",
"i 	c #499642",
"j 	c #B5DE98",
"k 	c #CCEBB5",
"l 	c #A7EFB1",
"m 	c #A9EEC9",
"n 	c #C9EAD1",
"o 	c #8DCFD5",
"p 	c #8BCBD9",
"q 	c #66B4CD",
"r 	c #67BCBC",
"s 	c #71D69A",
"t 	c #73DE82",
"u 	c #71DC7A",
"v 	c #A3D091",
"w 	c #A4C888",
"x 	c #438F3D",
"y 	c #D2ECB3",
"z 	c #A2E29B",
"A 	c #8DEA9D",
"B 	c #B7EDD4",
"C 	c #C7EAD0",
"D 	c #6EB9CF",
"E 	c #66B1CC",
"F 	c #75C9CB",
"G 	c #67DB76",
"H 	c #4DD966",
"I 	c #4DD765",
"J 	c #5DD36C",
"K 	c #7EBB73",
"L 	c #C2DBA5",
"M 	c #3E8839",
"N 	c #DCF0BE",
"O 	c #83D881",
"P 	c #6DDB77",
"Q 	c #9AE5BF",
"R 	c #A7DFCC",
"S 	c #5DA8CA",
"T 	c #6CBDC2",
"U 	c #8BDAB8",
"V 	c #60D8A6",
"W 	c #3FD177",
"X 	c #46D06A",
"Y 	c #50BC59",
"Z 	c #6CAB63",
"` 	c #CEE4B2",
" .	c #398235",
"..	c #6DC360",
"+.	c #DDEFBE",
"@.	c #7DD173",
"#.	c #6CD190",
"$.	c #9EE0BC",
"%.	c #5EA7C7",
"&.	c #5EB0D3",
"*.	c #5399C6",
"=.	c #6EBCC6",
"-.	c #7AD1AF",
";.	c #6DC4B4",
">.	c #5FA9AF",
",.	c #57A97B",
"'.	c #67A35A",
").	c #CEE3B1",
"!.	c #357E31",
"~.	c #6ABF5E",
"{.	c #CFE9B0",
"].	c #90D483",
"^.	c #8ADCBF",
"/.	c #82CBC3",
"(.	c #56A2CC",
"_.	c #5CAFDA",
":.	c #5BAFDC",
"<.	c #4B9AC9",
"[.	c #4386BF",
"}.	c #4384B7",
"|.	c #529AB9",
"1.	c #62A596",
"2.	c #76A665",
"3.	c #BDD8A2",
"4.	c #327A2F",
"5.	c #AFD792",
"6.	c #B4DEA0",
"7.	c #70C684",
"8.	c #80D0A8",
"9.	c #5CA5C5",
"0.	c #57A7D0",
"a.	c #56AAE0",
"b.	c #51A6DA",
"c.	c #4A98C7",
"d.	c #478CB9",
"e.	c #579BB6",
"f.	c #659F81",
"g.	c #90BF79",
"h.	c #9CBE81",
"i.	c #D3EAB5",
"j.	c #74BC69",
"k.	c #71BD6E",
"l.	c #6DB6BE",
"m.	c #5BA3C9",
"n.	c #5BABDF",
"o.	c #58A8DD",
"p.	c #4E92C1",
"q.	c #58A99D",
"r.	c #66B178",
"s.	c #67965A",
"t.	c #C0DCA6",
"u.	c #57A84E",
"v.	c #8DC076",
"w.	c #B3D799",
"x.	c #80C079",
"y.	c #7EC2BC",
"z.	c #6AA9C6",
"A.	c #69B1D7",
"B.	c #65ADD6",
"C.	c #5E9BBC",
"D.	c #6AAD60",
"E.	c #689759",
"F.	c #99C181",
"G.	c #7BA967",
"H.	c #86B770",
"I.	c #C7E8AE",
"J.	c #A0D2C0",
"K.	c #81B3C5",
"L.	c #7DB4CA",
"M.	c #78AFCC",
"N.	c #78A7B9",
"O.	c #95CC80",
"P.	c #BCDAA0",
"Q.	c #7AA866",
"R.	c #3F8A3A",
"S.	c #9DC59B",
"T.	c #9DC2B3",
"U.	c #9CC1BD",
"V.	c #9DC3BE",
"W.	c #B1D2B0",
"X.	c #9AC07E",
"Y.	c #3A8436",
"Z.	c #378033",
"`.	c #347D31",
"          . . . . . .           ",
"      . . + @ # $ % & * =       ",
"    . - ; > , ' ) ! ~ { ] ^     ",
"  . / ( _ : < [ } | 1 2 3 4 5   ",
"  . 6 7 8 9 0 a b c d e f g h i ",
". j k l m n o p q r s t u v w x ",
". y z A B C D E F G H I J K L M ",
". N O P Q R S T U V W X Y Z `  .",
"..+.@.#.$.%.&.*.=.-.;.>.,.'.).!.",
"~.{.].^./.(._.:.<.[.}.|.1.2.3.4.",
"= 5.6.7.8.9.0.a.b.c.d.e.f.g.h.4.",
"  ^ i.j.k.l.m.n.o.p.q.r.s.t.4.4.",
"  u.v.w.x.y.z.A.B.C.D.E.F.G.4.  ",
"    h H.I.J.K.L.M.N.O.P.Q.4.    ",
"      x R.S.T.U.V.W.X.4.4.      ",
"        Y.Z.`.4.4.4.4.4.        "};
