/* XPM */
static char *vtx_reset_xpm[]={
"16 16 3 1",
". c None",
"# c #000000",
"a c #c0c0c0",
"................",
"................",
"................",
"........#.......",
".......###......",
".......###......",
".....##a#a##....",
"....####a####...",
".....##a#a##....",
".......###......",
".......###......",
"........#.......",
"................",
"................",
"................",
"................"};
