/* XPM */
static char *vtx_autotm_xpm[]={
"16 15 3 1",
". c None",
"# c #000000",
"a c #ffff00",
"................",
"......###.......",
"....##a#a##.....",
"...#aaa#aaa#....",
"..#aaaa#aaaa#...",
"..#aaaa#a#aa#...",
".#aaaaa##aaaa#..",
".#aaaaa#aaaaa#..",
"..#aaaaaaaaa#...",
"..#aaaaaaaaa#...",
"...#aaaaaaa#....",
"....##aaa##.....",
"......###.......",
"................",
"................"};
