/* XPM */
static char *vtx_scene_edit_xpm[]={
"16 15 5 1",
". c #000000",
"a c #00ffff",
"# c #808080",
"c c #ff0000",
"b c #ffff00",
".....######.....",
"....#......#....",
"...#........aa..",
"..#....##...aa..",
".#...##..##..#..",
".#...#....#...#.",
".#..#..bb..#..#.",
".#..#.bbbb.#..#.",
".#..#..bb..#..#.",
".#...#....#..#..",
"..#..cc..##..#..",
"...#.cc##...#...",
"....#......#....",
".....######.....",
"................"};
