/* XPM */
static char *vtx_eye_xpm[]={
"16 16 5 1",
". c None",
"# c #000000",
"b c #0000ff",
"c c #00ffff",
"a c #ffffff",
"................",
"................",
"................",
"................",
"......#######...",
"....########....",
"...###abbc#.....",
"..##aaabccc#....",
"..#aaaab#c##....",
"..##aaabcc##....",
"...#aaabbcc#....",
"....##aabb#.....",
"......####......",
"................",
"................",
"................"};
