/* XPM */
static char *vtx_move_orbit_xpm[]={
"16 16 7 1",
". c #000000",
"c c #0000ff",
"e c #008080",
"b c #00ffff",
"d c #808080",
"a c #ffff00",
"# c #ffffff",
"................",
"....#..#........",
".#..#...........",
"....aa.bbb...#..",
"...aabbcccdd....",
"###aabccceed....",
"...#bccceeedd...",
"....bccceeedd.a.",
"....bccceeedd...",
".....bcceeed....",
".....bcccedd....",
"....#..ccc.....#",
"..a........#....",
"................",
"....#..b......#.",
"................"};
