/* XPM */
static char *vtx_small_icon_xpm[]={
"32 32 38 1",
". c #000000",
"a c #004000",
"# c #402000",
"c c #404000",
"d c #604000",
"h c #606000",
"b c #800000",
"e c #a04000",
"l c #a06000",
"z c #a06040",
"y c #a0a000",
"H c #a0a040",
"g c #c02000",
"f c #c04000",
"i c #c06000",
"J c #c06040",
"k c #c0a000",
"G c #c0a040",
"F c #c0a080",
"m c #c0c000",
"n c #c0c040",
"u c #c0c080",
"s c #c0dcc0",
"E c #c0e040",
"r c #c0e080",
"j c #e04000",
"o c #e06000",
"I c #e06040",
"C c #e0a000",
"p c #e0a040",
"w c #e0a080",
"D c #e0a0c0",
"v c #e0c000",
"B c #e0c040",
"q c #e0c080",
"A c #e0e080",
"t c #fffbf0",
"x c #ffffff",
"................................",
"................................",
"................................",
".........#.a##..................",
"...........#bc..................",
"..c#........c#b#................",
".#ddbebdcc..#cdd..#c............",
"#.#dcdddffc#.##cc.dggbc.........",
"......ac##hee#cebegfffbc#.......",
"..a#dcbbdd#bdeiiefijigfgdb#.....",
".##debdeikdilllfidejjifffega....",
"#bc#d#c#cblielmnkfbdlojeebeb....",
"c.a....hclhpnqrqqpnl.iefbeee....",
"c.#efd.#lnkqqsttrupvd#effeb.....",
"#d.ac..cdwqxxxxxtxuny.bdjiea#...",
"cd##..cbzkAxttxtxxtBpc#ceobe.b..",
"a.#...dhkytxxxxtxtxsp#.deiiib...",
".c....deCktxqxxxtxtsk.#deiofc..#",
".d....cikiqDuEqtxtxqpnweeCiib.##",
"cd.....dekllBnnnFqnuGHIieoef....",
"cc.....hokfhGFedlyyJhbllbddd....",
"be....#bCCibkykhbd.cddec.ci.#...",
"dd....#cikkieGlklhec##c#cbeeldcd",
"bd#....aiCCkjddcdb#.c#eidefledfe",
"##.#....doiokob#hda..ceifkoieiib",
"cb.#..d..dokioifadch...bldedeeba",
"ec....#.##foCifofd..dbcdbc#addee",
"c.c#..#ac.#iofffiofdccbdedddeddb",
"c#cc.#..#c.dioijfijofc#ccb.#cbbe",
"edde#a.a.b.ceoifjfffjibdcddddecd",
"d#.ddb#bddd.ceffiflfifebc##.ccbd",
".#.bbdccdbfd#c#ecdfjoffdbccb#cde"};
